<?xml version="1.0" standalone="no"?>
<!DOCTYPE svg PUBLIC "-//W3C//DTD SVG 20010904//EN"
 "http://www.w3.org/TR/2001/REC-SVG-20010904/DTD/svg10.dtd">
<svg version="1.0" xmlns="http://www.w3.org/2000/svg"
 width="1544.000000pt" height="1544.000000pt" viewBox="0 0 1544.000000 1544.000000"
 preserveAspectRatio="xMidYMid meet">
<metadata>
Created by potrace 1.11, written by Peter Selinger 2001-2013
</metadata>
<g transform="translate(0.000000,1544.000000) scale(0.100000,-0.100000)"
fill="#000000" stroke="none">
<path d="M7150 15424 c-1751 -128 -3382 -840 -4685 -2044 -896 -828 -1612
-1914 -2018 -3060 -396 -1119 -530 -2297 -397 -3475 114 -1004 430 -1990 918
-2865 540 -968 1267 -1796 2162 -2462 855 -636 1825 -1082 2875 -1321 322 -74
647 -126 1020 -163 217 -21 932 -30 1177 -15 1638 105 3179 715 4438 1755 228
189 782 721 795 764 3 12 12 22 18 22 7 0 53 48 102 106 50 59 104 123 121
143 61 71 300 388 384 509 491 707 852 1467 1085 2287 145 508 227 967 277
1550 17 200 17 939 0 1145 -72 863 -266 1668 -584 2420 -485 1147 -1222 2139
-2193 2951 -389 326 -897 663 -1375 912 -925 482 -1978 775 -3044 846 -212 15
-857 12 -1076 -5z m931 -144 c568 -29 1108 -112 1615 -251 831 -226 1631 -599
2332 -1086 217 -151 455 -332 502 -382 8 -9 27 -24 41 -33 14 -9 97 -81 185
-159 266 -239 527 -508 770 -794 111 -131 374 -476 374 -491 0 -3 8 -13 17
-22 30 -30 303 -452 303 -469 0 -3 6 -14 14 -22 23 -27 161 -280 255 -468 454
-908 718 -1886 781 -2893 24 -384 8 -985 -35 -1365 -137 -1196 -571 -2360
-1253 -3365 -341 -503 -772 -995 -1227 -1401 -1487 -1325 -3422 -2009 -5406
-1909 -1234 62 -2381 403 -3444 1023 -177 103 -256 154 -565 364 -105 71 -464
352 -560 439 -19 17 -84 76 -145 130 -60 55 -111 102 -113 105 -1 3 -10 15
-18 25 -9 10 -12 12 -8 4 13 -26 -61 48 -235 230 -263 278 -527 592 -515 612
4 6 3 8 -4 4 -12 -7 -44 33 -36 46 3 5 1 7 -4 6 -19 -6 -256 327 -246 344 4 6
3 8 -3 5 -7 -4 -44 45 -89 116 -42 67 -87 138 -99 157 -92 146 -218 374 -332
605 -446 903 -699 1857 -763 2880 -15 233 -12 748 5 985 56 793 216 1505 500
2230 128 327 299 688 451 952 42 73 85 148 95 166 39 69 142 227 151 233 5 3
9 9 8 13 -3 14 325 478 386 546 7 8 44 53 80 100 77 97 244 289 348 400 232
247 632 619 658 612 5 -1 7 2 3 7 -3 6 5 15 17 22 13 7 28 17 33 24 29 33 301
245 435 338 603 418 1116 689 1765 930 936 349 1969 507 2976 457z"/>
<path d="M8665 15091 c-12 -11 -3 -22 30 -35 41 -17 42 -26 23 -166 l-11 -87
-30 28 c-111 107 -288 24 -341 -160 -31 -107 -13 -237 41 -302 58 -68 161 -89
227 -44 20 14 39 25 42 25 3 0 4 -15 2 -32 l-3 -33 70 3 c108 4 175 13 175 22
0 5 -13 16 -30 25 -22 12 -30 23 -30 43 0 15 18 171 40 347 22 176 40 325 40
331 0 10 -236 44 -245 35z m-15 -308 c17 -14 35 -36 40 -47 10 -27 -23 -286
-40 -313 -20 -31 -67 -56 -95 -49 -38 10 -55 54 -55 143 0 174 41 293 100 293
10 0 33 -12 50 -27z"/>
<path d="M9397 14868 c-32 -118 -25 -142 22 -74 50 72 110 91 202 66 l37 -10
-18 -68 c-50 -188 -152 -547 -161 -563 -15 -28 -42 -39 -83 -32 -27 4 -36 2
-36 -8 0 -10 60 -31 188 -67 103 -28 193 -52 200 -52 23 0 12 28 -13 34 -14 4
-34 15 -45 26 -23 23 -24 18 25 195 19 66 52 188 75 270 23 83 46 164 51 181
l10 32 52 -15 c84 -24 112 -60 123 -157 4 -33 12 -56 19 -56 14 0 69 201 58
210 -5 4 -102 33 -218 64 -115 32 -264 73 -330 92 -66 19 -122 34 -125 34 -3
0 -18 -46 -33 -102z"/>
<path d="M7656 14912 c-24 -5 -19 -19 12 -34 l27 -13 -2 -208 c0 -114 -4 -218
-7 -231 -4 -15 -16 -26 -32 -30 -14 -4 -24 -12 -21 -19 2 -8 44 -13 140 -15
117 -2 137 0 137 13 0 8 -7 15 -15 15 -28 0 -33 44 -28 211 5 142 8 168 26
192 24 36 55 48 85 34 l23 -11 -3 -205 c-2 -138 -7 -206 -14 -208 -24 -8 -49
-32 -41 -39 4 -5 54 -10 110 -11 56 -2 116 -5 134 -6 44 -4 51 19 12 38 l-30
16 2 202 c1 119 -2 212 -8 227 -37 89 -155 118 -236 57 -56 -42 -59 -42 -55
-11 l3 29 -101 5 c-56 3 -109 4 -118 2z"/>
<path d="M7184 14892 c-98 -35 -144 -84 -144 -154 0 -93 144 -108 165 -17 5
19 0 34 -21 58 l-27 32 20 21 c25 25 88 27 111 4 10 -10 17 -39 20 -78 4 -62
4 -63 -30 -82 -173 -97 -228 -154 -228 -233 1 -126 138 -152 251 -47 29 28 39
30 39 10 0 -27 50 -56 97 -56 40 0 103 25 103 40 0 4 9 16 20 27 17 19 18 22
3 35 -13 10 -17 10 -20 1 -5 -14 -29 -17 -37 -5 -2 4 -10 82 -16 172 -7 91
-18 179 -25 196 -7 17 -30 44 -51 60 -31 24 -48 29 -108 32 -49 2 -87 -3 -122
-16z m128 -428 c-64 -51 -123 -1 -93 78 5 13 28 42 52 66 l44 43 7 -87 c7 -76
6 -89 -10 -100z"/>
<path d="M6348 14790 c-173 -52 -229 -279 -116 -467 73 -120 241 -140 348 -41
26 23 70 114 70 142 0 27 -27 17 -40 -14 -32 -76 -125 -106 -175 -55 -14 13
-25 21 -25 17 0 -4 -12 10 -26 31 -26 39 -49 95 -42 102 2 2 64 16 138 30 74
15 138 30 142 33 10 10 -34 114 -63 151 -13 16 -46 42 -73 56 -51 25 -89 30
-138 15z m67 -64 c21 -21 63 -132 53 -140 -6 -6 -143 -34 -146 -31 -11 10 -5
134 7 149 7 9 10 16 5 16 -14 1 29 30 43 30 8 0 25 -11 38 -24z"/>
<path d="M5823 14669 c-114 -33 -183 -132 -183 -264 0 -150 103 -292 225 -311
62 -9 143 17 188 61 61 60 99 155 62 155 -8 0 -15 -3 -15 -7 0 -5 -13 -23 -29
-42 -24 -28 -38 -35 -77 -38 -72 -7 -120 31 -172 135 -67 135 -66 252 3 252
20 0 30 -10 50 -50 31 -61 63 -84 105 -75 65 14 81 92 30 144 -46 46 -115 61
-187 40z"/>
<path d="M5250 14478 c-30 -15 -56 -40 -77 -72 -31 -48 -32 -49 -39 -23 -8 35
-20 34 -128 -11 -93 -39 -110 -55 -63 -60 15 -2 34 -13 42 -25 21 -34 145
-366 145 -391 0 -12 -10 -30 -21 -40 -45 -38 4 -32 128 15 69 27 128 50 130
53 9 9 -9 27 -23 22 -28 -11 -55 34 -114 189 l-60 159 18 35 c9 19 26 41 38
48 38 24 60 -8 129 -192 67 -176 72 -195 54 -195 -5 0 -8 -4 -4 -9 3 -5 1 -12
-5 -16 -15 -9 -12 -25 4 -25 8 0 67 20 132 45 64 24 121 42 126 39 5 -4 4 3
-3 14 -8 12 -26 22 -43 24 -29 3 -33 9 -101 178 -79 198 -93 222 -140 244 -45
22 -73 20 -125 -6z"/>
<path d="M10165 14471 c-46 -12 -110 -56 -142 -98 -15 -21 -32 -41 -38 -45 -5
-4 -7 -8 -3 -8 4 0 -3 -21 -15 -47 -31 -70 -31 -193 1 -248 56 -97 193 -143
286 -95 22 10 44 17 50 13 6 -3 8 -3 4 1 -3 4 8 21 25 36 27 24 29 30 16 35
-9 3 -34 -3 -55 -14 -95 -51 -174 5 -177 126 -2 70 9 117 25 107 6 -4 68 -28
137 -54 l126 -47 13 41 c7 23 12 71 10 108 -3 57 -9 74 -36 113 -18 26 -29 52
-26 58 5 9 4 9 -6 0 -10 -9 -18 -8 -36 3 -27 18 -116 26 -159 15z m130 -58
c13 -13 16 -29 12 -72 -2 -31 -9 -68 -15 -83 l-11 -27 -68 24 c-37 14 -69 25
-70 25 -5 0 33 78 47 96 18 25 60 54 77 54 6 0 19 -8 28 -17z"/>
<path d="M11225 14289 c-4 -5 1 -19 10 -29 21 -24 15 -57 -24 -120 -16 -25
-81 -137 -146 -250 -65 -113 -123 -208 -129 -212 -6 -4 -7 -8 -2 -8 5 0 1 -9
-9 -20 -13 -14 -29 -20 -48 -18 -17 2 -32 -2 -34 -8 -4 -11 214 -144 236 -144
14 0 14 15 -1 40 -15 23 -18 16 137 288 35 61 84 85 130 64 40 -18 31 -54 -47
-191 -107 -189 -115 -199 -151 -203 -17 -2 -32 -7 -33 -13 -4 -12 235 -150
244 -141 3 4 -1 19 -10 34 -20 34 -19 37 80 209 101 175 111 206 87 268 -24
65 -74 96 -152 97 -33 1 -65 -2 -72 -6 -13 -9 49 108 73 136 9 10 14 18 11 18
-3 0 9 22 25 49 17 26 30 51 30 54 0 5 -187 117 -195 117 -2 0 -7 -5 -10 -11z"/>
<path d="M10690 14260 c-90 -17 -172 -89 -218 -189 -86 -188 16 -371 208 -371
60 0 153 43 148 67 -2 10 -11 16 -19 14 -8 -3 -37 -7 -65 -9 -44 -3 -54 0 -81
25 -23 22 -33 42 -39 78 -18 125 61 311 142 331 45 11 50 -4 38 -112 -6 -58
-5 -62 21 -82 87 -69 165 38 106 145 -41 72 -153 121 -241 103z"/>
<path d="M4614 14210 c-93 -46 -129 -109 -128 -225 0 -96 28 -168 95 -240 57
-62 104 -85 174 -85 86 0 159 44 201 122 15 28 34 144 26 153 -15 15 -30 0
-36 -34 -14 -87 -90 -130 -167 -95 -36 15 -119 95 -119 113 0 4 59 36 130 71
72 35 130 69 130 75 0 11 -62 89 -90 113 -30 26 -96 52 -135 52 -22 0 -58 -9
-81 -20z m79 -62 c14 -13 37 -43 51 -68 l26 -46 -65 -32 c-36 -18 -67 -32 -69
-32 -2 0 -11 18 -20 40 -18 46 -21 112 -6 141 14 26 53 24 83 -3z"/>
<path d="M4057 14199 c-25 -15 -47 -70 -40 -100 15 -61 79 -92 132 -65 37 20
51 44 51 88 0 66 -84 111 -143 77z"/>
<path d="M7346 14090 c-1155 -80 -2244 -451 -3183 -1083 -77 -53 -144 -94
-147 -91 -3 2 -4 1 -1 -2 2 -4 -30 -31 -73 -62 -42 -30 -133 -100 -202 -156
-442 -356 -795 -717 -1123 -1151 -34 -44 -63 -82 -66 -85 -8 -6 -73 -102 -181
-265 -690 -1037 -1059 -2276 -1060 -3555 0 -248 -5 -286 -34 -305 -12 -7 -68
-15 -135 -19 l-114 -5 20 22 c67 73 47 205 -40 271 -70 53 -213 71 -317 40
-116 -34 -171 -92 -178 -186 -5 -69 9 -109 51 -144 l31 -26 -30 4 -29 3 -3
-70 c-4 -93 6 -177 21 -172 7 2 13 13 15 25 2 11 10 26 17 32 10 8 126 17 347
26 293 12 335 12 355 -2 13 -8 23 -21 23 -29 0 -8 6 -15 14 -15 9 0 15 -23 19
-82 9 -129 54 -424 97 -638 71 -354 186 -740 321 -1087 33 -84 60 -156 59
-159 -1 -4 2 -10 7 -13 5 -3 25 -42 44 -86 88 -207 262 -533 416 -780 347
-559 841 -1125 1343 -1539 19 -16 34 -33 32 -38 -1 -4 1 -7 6 -6 12 5 192
-139 184 -147 -4 -3 -2 -5 4 -3 17 5 174 -113 167 -125 -3 -6 -1 -7 6 -3 7 5
33 -8 64 -31 56 -42 285 -189 380 -244 33 -19 73 -42 90 -53 145 -86 458 -241
647 -321 74 -31 160 -67 190 -80 121 -51 389 -141 596 -199 922 -262 1906
-313 2854 -150 1087 187 2085 639 2955 1338 120 97 320 275 468 418 75 72 107
98 107 84 0 -26 57 -165 178 -436 92 -203 106 -242 106 -287 0 -35 4 -53 12
-53 16 0 124 111 124 128 0 14 -26 16 -35 2 -12 -19 -44 -10 -63 18 -21 29
-115 232 -110 237 5 5 269 -102 281 -114 9 -9 9 -16 -1 -31 -15 -25 -15 -40 1
-40 16 0 207 191 207 208 0 9 -11 11 -37 7 -44 -7 -63 -1 -353 114 l-205 81
-23 53 c-40 93 -39 163 1 122 29 -29 67 -37 94 -20 66 44 34 145 -45 145 l-23
0 28 33 c116 138 167 192 177 189 6 -2 8 0 4 4 -4 4 21 41 55 83 35 42 104
131 154 198 50 67 94 120 97 117 3 -2 4 -1 2 2 -3 4 32 61 78 128 660 968
1036 2081 1106 3271 53 913 -111 1907 -455 2757 -80 197 -76 187 -191 423
-116 237 -219 425 -322 583 -14 22 -14 22 14 7 16 -8 52 -15 80 -15 49 0 81 5
339 51 352 62 373 65 405 46 49 -29 47 -1 -6 86 -38 64 -49 76 -60 66 -11 -9
-11 -15 -3 -25 16 -19 3 -49 -27 -63 -27 -12 -215 -51 -246 -51 -14 0 -3 22
45 91 34 50 76 107 93 127 31 36 31 36 58 18 15 -9 32 -16 37 -14 13 4 -138
253 -153 253 -8 0 -15 -17 -18 -40 -7 -46 -10 -51 -144 -240 -189 -266 -166
-241 -244 -255 -71 -13 -122 -8 -122 11 0 6 14 22 30 36 37 31 40 70 7 101
-31 30 -77 28 -111 -3 -25 -23 -30 -39 -26 -80 1 -13 -2 -16 -8 -10 -20 21
-112 165 -112 175 0 5 -4 10 -9 10 -5 0 -17 12 -27 28 l-18 27 35 -28 c56 -45
92 -61 139 -61 129 0 187 116 118 235 -14 24 -28 48 -29 53 -2 5 -18 24 -35
43 -17 19 -40 49 -50 68 -18 33 -17 35 1 55 29 32 54 21 105 -45 65 -84 125
-117 207 -112 52 2 69 8 99 33 21 17 43 45 49 64 l11 34 28 -37 c16 -20 31
-37 35 -37 3 1 17 10 30 20 l23 20 -52 72 c-29 39 -61 91 -71 116 -30 69 -77
122 -133 148 -72 33 -130 32 -189 -5 -62 -40 -91 -96 -85 -168 3 -29 4 -53 3
-53 -2 0 -19 7 -38 15 -20 8 -55 15 -78 15 -53 0 -109 -51 -109 -99 l0 -32
-30 16 c-41 21 -67 19 -95 -10 -32 -31 -32 -74 0 -145 24 -53 24 -54 2 -26
-118 155 -303 373 -435 512 -224 238 -382 386 -607 570 -38 31 -69 61 -68 66
2 4 -1 7 -5 5 -5 -1 -80 51 -168 117 -748 558 -1564 928 -2499 1135 -205 45
-483 87 -775 117 -174 18 -797 26 -984 14z m774 -160 c868 -53 1645 -259 2415
-640 368 -182 672 -368 987 -604 135 -100 155 -121 69 -71 -32 19 -62 35 -64
35 -3 0 -43 17 -89 39 -136 63 -252 103 -438 152 -423 111 -934 110 -1355 -2
-207 -56 -365 -114 -530 -196 -126 -64 -292 -160 -315 -183 -3 -3 -25 -18 -50
-34 -116 -75 -363 -296 -459 -412 -13 -16 -48 -57 -78 -91 -29 -33 -53 -66
-53 -72 0 -5 -6 -14 -13 -18 -16 -10 -97 -128 -97 -142 0 -5 -3 -11 -8 -13
-20 -8 -129 -206 -182 -329 -17 -41 -38 -88 -45 -105 -8 -17 -33 -86 -55 -154
-23 -69 -43 -126 -45 -128 -2 -2 -15 32 -28 75 -14 43 -37 105 -51 137 -14 32
-26 63 -26 68 0 19 -129 266 -190 362 -144 228 -322 436 -510 596 -36 30 -67
58 -70 61 -13 14 -171 129 -220 159 -30 19 -57 37 -60 40 -25 28 -293 162
-438 220 -197 78 -378 125 -627 162 -252 37 -682 27 -890 -21 -22 -6 -83 -20
-135 -32 -113 -26 -307 -89 -405 -131 -124 -54 -254 -118 -270 -134 -8 -9 -15
-12 -15 -7 0 8 70 66 168 139 29 21 68 51 85 65 45 37 325 226 432 291 873
536 1877 854 2895 917 197 12 570 12 760 1z m5435 -1986 c27 -11 37 -51 20
-84 -16 -32 -80 -87 -138 -119 -69 -39 -127 -21 -127 40 0 36 56 95 132 138
53 31 81 37 113 25z m-513 -311 c51 -54 128 -176 128 -203 0 -37 -40 -56 -78
-36 -54 29 -137 137 -148 195 -14 68 49 96 98 44z m-337 -103 c10 -11 16 -20
13 -20 -3 0 -13 9 -23 20 -10 11 -16 20 -13 20 3 0 13 -9 23 -20z m92 -122
c133 -177 306 -441 401 -610 10 -18 43 -75 72 -127 118 -210 277 -559 381
-837 401 -1078 493 -2273 264 -3429 -119 -598 -363 -1262 -652 -1775 -121
-214 -164 -285 -262 -434 -80 -121 -239 -344 -252 -351 -4 -3 8 20 27 52 19
31 34 60 34 65 0 4 12 32 26 61 87 178 174 476 205 702 100 740 -95 1447 -556
2020 -68 84 -251 276 -305 320 -14 11 -50 41 -81 67 -287 244 -679 440 -1074
537 -44 11 -109 26 -145 34 -53 12 -59 15 -30 16 65 3 329 59 447 96 423 132
796 361 1090 669 56 59 130 144 163 189 34 45 67 89 73 97 30 38 117 183 159
265 101 197 177 425 220 660 21 119 23 156 22 440 -1 332 -13 467 -58 685 -33
157 -129 460 -148 468 -5 2 -8 9 -8 16 0 7 -20 54 -45 104 -24 51 -43 92 -41
92 2 0 35 -42 73 -92z m-10131 -95 c-80 -158 -163 -412 -195 -598 -39 -226
-44 -280 -45 -475 0 -262 30 -501 91 -710 14 -47 31 -105 38 -130 6 -25 22
-70 35 -100 12 -30 30 -73 39 -95 160 -396 477 -805 836 -1077 72 -54 224
-158 231 -158 3 0 18 -9 33 -19 87 -63 373 -192 556 -251 39 -13 66 -25 60
-26 -5 -2 -50 -15 -100 -29 -121 -35 -297 -105 -426 -171 -245 -125 -448 -273
-653 -478 -72 -72 -134 -130 -138 -129 -4 2 -5 -4 -2 -12 3 -8 -3 -19 -15 -27
-12 -7 -21 -17 -21 -22 0 -4 -17 -29 -38 -55 -148 -179 -302 -465 -390 -723
-91 -264 -131 -496 -139 -803 -8 -301 14 -510 82 -780 38 -150 131 -416 161
-460 28 -40 13 -36 -17 5 -293 404 -578 933 -761 1410 -213 557 -338 1096
-395 1710 -21 225 -24 833 -5 1040 59 647 176 1170 390 1735 155 412 373 838
619 1215 96 146 191 280 199 280 3 0 -11 -30 -30 -67z m4964 -1130 c0 -49 4
-122 10 -163 5 -41 14 -113 19 -160 11 -91 46 -228 118 -449 25 -78 77 -206
85 -209 4 -2 8 -9 8 -15 0 -18 132 -271 149 -287 3 -3 28 -39 56 -80 306 -462
776 -830 1305 -1023 180 -65 302 -99 400 -112 30 -4 66 -12 79 -16 32 -12 197
-48 296 -64 44 -8 113 -19 153 -25 l72 -12 0 -1254 0 -1254 -1271 -2 c-1264
-3 -1272 -3 -1280 17 -14 35 -20 95 -23 209 -6 294 -103 650 -261 967 -29 59
-65 125 -79 147 -14 23 -26 44 -26 46 0 9 -114 172 -189 270 -103 136 -291
325 -421 426 -25 19 -54 43 -65 53 -26 23 -242 167 -251 167 -4 0 -15 6 -23
14 -26 22 -248 131 -351 171 -88 35 -205 73 -375 123 -111 33 -368 72 -520 80
l-140 7 -3 1258 -2 1257 1265 0 1265 0 0 -87z m2742 -1165 c-2 -689 -5 -1254
-5 -1254 -1 -1 -27 2 -57 7 -78 14 -160 27 -270 44 -516 77 -918 246 -1304
547 -90 70 -268 243 -337 327 -24 30 -52 62 -61 72 -50 53 -235 334 -258 394
-4 11 -28 63 -53 115 -88 187 -170 469 -196 679 -6 46 -11 137 -11 203 l0 118
1278 0 1277 0 -3 -1252z m-4837 -1488 c386 -66 752 -217 1065 -440 120 -85
157 -118 303 -260 371 -362 612 -820 702 -1335 14 -82 35 -315 35 -392 l0 -43
-1270 0 -1270 0 0 1252 0 1251 158 -6 c86 -4 211 -16 277 -27z m-4547 -73 c40
-22 43 -58 9 -108 -21 -31 -28 -35 -92 -42 -39 -4 -114 -7 -167 -5 -87 3 -99
6 -123 28 -20 19 -25 32 -23 59 6 67 75 91 253 87 82 -1 118 -6 143 -19z
m6776 -3031 c12 -62 84 -271 129 -373 66 -151 233 -441 259 -451 4 -2 8 -8 8
-14 0 -5 24 -41 54 -79 401 -516 946 -859 1591 -1000 184 -40 249 -48 462 -55
435 -15 821 60 1233 238 52 23 107 50 122 60 14 10 29 18 32 18 3 0 39 20 81
45 41 24 75 43 75 41 0 -5 -219 -178 -320 -253 -147 -108 -203 -146 -217 -146
-7 0 -10 -3 -8 -6 2 -4 -42 -36 -98 -73 -310 -201 -893 -504 -928 -483 -7 5
-10 4 -6 -3 14 -22 -409 -180 -743 -277 -846 -245 -1774 -306 -2665 -174
-1021 150 -2011 564 -2835 1185 -191 144 -189 142 -80 86 98 -50 331 -145 397
-161 21 -5 81 -21 132 -36 402 -111 928 -109 1361 4 153 40 188 51 315 101
259 102 518 253 727 425 301 249 551 563 711 895 70 144 143 342 177 477 15
58 25 60 34 9z"/>
<path d="M4157 13953 c-53 -30 -95 -59 -91 -64 3 -5 20 -9 39 -9 25 0 38 -7
53 -27 38 -55 190 -329 193 -350 2 -11 -5 -30 -15 -42 -15 -16 -17 -24 -8 -33
9 -9 16 -8 29 3 10 9 66 42 126 75 109 59 138 91 74 79 -43 -8 -50 1 -187 243
-56 100 -106 182 -109 181 -3 0 -50 -25 -104 -56z"/>
<path d="M3866 13785 c-54 -19 -107 -64 -136 -116 -36 -64 -35 -171 1 -250 78
-166 245 -240 372 -165 27 16 55 39 64 52 8 13 20 21 26 17 5 -3 7 -1 4 4 -4
6 0 27 8 47 20 46 20 136 1 136 -7 0 -16 -13 -19 -29 -3 -16 -13 -36 -22 -45
-9 -9 -14 -16 -10 -16 14 0 -25 -30 -51 -40 -71 -27 -180 38 -255 153 -41 64
-57 124 -39 156 15 30 41 26 76 -10 31 -33 74 -59 98 -59 8 0 28 12 45 26 55
46 31 119 -47 142 -49 15 -67 15 -116 -3z"/>
<path d="M11710 13713 c0 -5 7 -17 15 -27 8 -11 15 -23 15 -27 0 -8 -211 -309
-242 -344 -18 -21 -28 -24 -55 -19 -21 4 -33 2 -33 -4 0 -14 3 -17 124 -103
70 -50 102 -67 109 -60 8 8 7 15 -1 23 -22 22 -13 44 53 139 36 52 80 115 98
141 44 65 115 89 150 50 29 -32 30 -30 -100 -213 -97 -135 -113 -152 -150
-153 -23 -1 -48 -26 -25 -26 5 0 55 -34 111 -75 56 -41 106 -75 111 -75 14 0
12 22 -5 44 -18 24 -18 24 107 200 54 77 103 156 109 177 17 57 4 102 -41 143
-41 37 -85 50 -149 44 l-39 -3 19 24 c11 13 16 27 12 31 -27 23 -132 99 -150
108 -25 14 -43 15 -43 5z"/>
<path d="M3282 13663 c3 -41 15 -33 -118 -79 -159 -56 -224 -255 -123 -377 67
-82 151 -100 318 -68 146 28 218 30 252 7 35 -22 53 -67 45 -110 -25 -135
-234 -174 -373 -70 -35 27 -53 30 -53 12 0 -7 34 -56 75 -108 42 -52 81 -103
88 -114 16 -24 37 -13 37 19 0 43 11 54 75 75 36 12 80 32 100 45 19 14 35 22
35 18 0 -3 14 12 31 33 120 149 88 334 -68 399 -49 21 -143 19 -263 -5 -143
-28 -238 -25 -226 7 4 8 1 11 -5 7 -16 -10 -29 16 -29 60 0 31 7 45 38 76 72
73 182 79 276 15 61 -41 93 -24 43 23 -13 12 -50 56 -83 97 -32 41 -63 74 -67
75 -5 0 -7 -17 -5 -37z"/>
<path d="M12276 13204 c-133 -42 -224 -153 -234 -285 -6 -84 8 -125 61 -180
64 -67 100 -84 182 -84 59 0 79 5 124 30 105 58 172 159 178 270 4 60 1 77
-21 119 -14 27 -22 54 -19 59 4 6 1 7 -6 2 -8 -4 -23 3 -39 18 -63 58 -145 77
-226 51z m198 -90 c24 -24 19 -75 -12 -125 -16 -24 -73 -90 -128 -147 -97
-100 -101 -103 -139 -100 -30 2 -42 9 -51 27 -26 51 15 118 157 263 80 82 101
98 127 98 17 0 38 -7 46 -16z"/>
<path d="M2604 13103 c-20 -4 -122 -82 -116 -89 1 -2 -4 -14 -12 -27 -47 -71
-36 -171 26 -242 l41 -46 -22 -23 c-26 -28 -26 -38 -2 -60 18 -16 20 -16 45 9
l27 27 37 -34 c104 -95 272 -268 272 -281 0 -8 -9 -26 -20 -40 -14 -18 -17
-28 -9 -33 6 -3 40 22 78 60 37 37 70 64 74 61 4 -3 5 -2 2 2 -3 4 15 28 41
54 52 53 53 82 0 50 -30 -19 -33 -19 -57 -3 -14 9 -87 78 -162 152 l-137 134
29 29 c28 29 28 30 10 48 -25 25 -31 24 -59 -6 l-24 -26 -68 68 c-67 66 -85
104 -54 116 8 3 24 -5 37 -19 22 -23 63 -31 85 -16 18 13 44 56 44 75 0 10
-11 29 -25 42 -23 24 -36 27 -81 18z"/>
<path d="M12914 13059 c-3 -6 -1 -16 5 -22 28 -28 6 -56 -221 -284 -128 -128
-240 -236 -250 -239 -9 -3 -27 0 -38 6 -11 6 -25 8 -31 4 -13 -7 188 -214 208
-214 15 0 17 16 3 25 -5 3 -10 18 -10 32 0 20 55 80 252 279 138 139 255 251
260 248 4 -3 8 -2 8 2 0 9 -162 174 -171 174 -4 0 -11 -5 -15 -11z"/>
<path d="M12940 12513 c-102 -35 -183 -119 -216 -221 -20 -66 -14 -129 21
-188 69 -118 201 -159 327 -102 180 83 255 276 162 413 -13 20 -21 41 -18 47
4 7 2 8 -5 4 -6 -4 -25 4 -42 18 -55 47 -146 58 -229 29z m232 -100 c24 -22
23 -62 -4 -100 -49 -68 -270 -243 -308 -243 -30 0 -60 35 -60 69 0 26 12 45
57 92 64 68 173 158 218 182 39 21 74 21 97 0z"/>
<path d="M2379 12461 c-129 -25 -225 -162 -200 -282 31 -143 153 -254 293
-267 103 -9 198 50 247 153 66 141 -41 330 -220 386 -65 20 -65 20 -120 10z
m6 -120 c58 -34 209 -165 244 -211 13 -18 24 -43 24 -57 0 -33 -31 -63 -63
-63 -39 0 -131 65 -238 168 -78 75 -92 93 -92 120 0 35 29 72 58 72 9 0 40
-13 67 -29z"/>
<path d="M1593 11823 c4 -10 18 -51 32 -91 14 -40 30 -104 35 -143 10 -85 21
-101 45 -65 10 14 21 26 25 26 4 0 79 -47 166 -105 132 -87 166 -105 197 -105
111 0 181 121 131 226 -24 51 -54 41 -34 -11 13 -34 -3 -65 -33 -65 -22 0
-327 197 -327 211 0 5 14 29 32 55 l31 47 -22 19 c-13 10 -26 18 -30 18 -3 0
-19 -20 -34 -45 -16 -25 -33 -47 -37 -50 -5 -3 -43 17 -84 45 -79 53 -102 61
-93 33z"/>
<path d="M1520 11341 c-63 -33 -97 -134 -70 -205 11 -30 4 -33 -22 -9 -23 21
-25 19 -87 -92 -31 -56 -47 -93 -41 -99 6 -6 17 -3 28 7 10 9 25 17 32 17 18
0 338 -177 368 -203 13 -12 22 -32 22 -48 0 -15 4 -30 9 -33 9 -6 141 223 141
244 0 11 -13 13 -24 3 -23 -24 -65 -10 -206 68 -150 82 -170 101 -170 154 0
77 37 74 207 -21 183 -101 193 -109 193 -145 0 -17 5 -29 13 -29 12 1 137 217
137 239 0 16 -19 14 -36 -4 -9 -8 -21 -15 -27 -15 -23 0 -277 147 -270 155 5
4 3 5 -4 1 -7 -4 -30 2 -52 14 -50 25 -96 26 -141 1z"/>
<path d="M14369 10791 c-76 -24 -132 -76 -159 -147 -12 -33 -23 -103 -30 -186
-12 -146 -32 -205 -75 -228 -78 -42 -169 21 -181 127 -9 73 17 148 73 212 25
29 51 50 57 48 7 -3 13 6 14 19 1 13 -2 24 -7 24 -12 0 -264 -110 -275 -120
-5 -5 9 -17 30 -27 39 -18 39 -18 46 -93 10 -101 35 -164 85 -220 134 -149
348 -110 407 73 9 28 21 108 27 177 12 148 24 194 57 221 50 39 130 10 158
-57 34 -81 -1 -205 -73 -263 -33 -26 -43 -51 -20 -51 6 0 48 17 92 38 44 21
95 44 113 52 38 15 37 35 -2 35 -37 1 -43 15 -44 94 0 108 -49 200 -130 244
-52 28 -123 40 -163 28z"/>
<path d="M1262 10761 c-93 -32 -136 -95 -136 -197 1 -154 155 -284 336 -284
91 0 141 27 189 102 30 46 34 61 34 118 0 57 -4 73 -35 123 -32 53 -48 66 -63
51 -3 -4 3 -24 13 -45 51 -99 -9 -180 -132 -179 -29 1 -65 6 -80 13 l-26 12
18 40 c70 151 98 221 90 229 -9 9 -115 36 -140 36 -8 -1 -39 -9 -68 -19z m79
-125 l36 -17 -30 -62 c-16 -34 -31 -64 -32 -65 -8 -9 -78 34 -105 64 -32 37
-38 71 -17 93 16 17 101 10 148 -13z"/>
<path d="M1014 10209 c-95 -27 -129 -151 -73 -261 l19 -38 -21 0 c-34 0 -80
-32 -99 -70 -30 -59 -33 -93 -12 -154 10 -31 18 -56 16 -56 -1 0 -14 4 -28 10
-25 9 -26 8 -60 -98 -36 -111 -35 -146 4 -104 12 12 28 22 38 22 25 0 373
-110 399 -126 12 -7 23 -25 25 -39 6 -49 23 -26 59 82 49 149 52 163 35 163
-8 0 -16 -7 -20 -15 -9 -25 -63 -17 -225 34 -145 46 -155 50 -172 82 -24 45
-23 72 1 94 25 22 56 16 265 -53 135 -45 140 -48 150 -79 9 -32 35 -46 35 -20
0 6 16 61 35 121 19 60 35 118 35 128 0 24 -17 23 -30 -2 -16 -30 -46 -26
-222 30 -141 45 -159 54 -173 80 -18 35 -20 81 -3 98 7 7 23 12 37 12 36 0
343 -99 364 -118 9 -8 17 -26 17 -39 0 -30 27 -30 35 0 4 12 22 70 41 129 19
59 34 111 34 117 0 18 -24 12 -38 -9 -7 -11 -21 -20 -31 -20 -11 0 -91 22
-178 49 -180 56 -216 63 -259 50z"/>
<path d="M14305 10046 c-67 -21 -100 -43 -148 -96 -64 -71 -78 -127 -56 -214
19 -78 110 -160 184 -168 41 -4 38 15 -5 44 -61 41 -77 105 -41 165 64 103
277 188 349 137 32 -22 28 -52 -10 -72 -18 -9 -47 -31 -66 -49 -27 -26 -32
-37 -26 -60 7 -32 47 -73 72 -73 29 0 80 37 97 70 9 18 16 56 16 87 0 107 -73
203 -176 232 -52 14 -140 13 -190 -3z"/>
<path d="M14950 9616 c0 -13 -6 -28 -13 -34 -7 -6 -112 -34 -233 -62 -120 -28
-256 -59 -301 -70 -105 -26 -137 -25 -162 1 -11 12 -24 19 -29 15 -12 -7 50
-268 65 -273 6 -2 15 9 21 26 12 34 15 35 221 81 74 17 143 28 154 24 55 -17
85 -77 52 -104 -18 -15 -326 -89 -372 -90 -22 0 -36 6 -43 20 -6 10 -16 17
-23 14 -20 -7 42 -275 63 -272 8 2 16 13 18 25 2 12 9 26 15 31 7 5 92 28 189
52 209 49 248 70 266 142 16 63 0 110 -53 164 l-44 43 37 11 c20 5 82 19 137
31 55 12 103 24 107 28 12 11 -43 221 -58 221 -8 0 -14 -10 -14 -24z"/>
<path d="M706 9322 c-2 -4 -9 -33 -16 -64 -6 -32 -15 -58 -19 -58 -4 0 -46 9
-94 19 -86 19 -111 15 -88 -13 6 -7 7 -17 3 -21 -4 -5 -2 -5 5 -2 17 10 97
-85 139 -165 19 -38 41 -68 48 -68 8 0 17 15 20 33 l6 34 194 -40 194 -39 39
18 c21 11 48 35 61 54 20 29 23 45 20 93 -4 49 -9 62 -38 92 -19 19 -40 35
-47 35 -18 0 -16 -7 8 -41 11 -16 19 -36 17 -45 -7 -38 -31 -38 -223 1 l-187
39 6 48 c4 27 9 54 12 61 5 13 -53 41 -60 29z"/>
<path d="M616 8864 c-43 -42 -28 -118 36 -183 l43 -44 -55 7 -56 7 -12 -98
c-15 -124 -15 -133 3 -133 8 0 15 6 15 14 0 7 7 19 15 26 13 11 53 8 221 -14
113 -15 213 -30 220 -33 8 -3 18 -18 21 -34 3 -16 12 -29 19 -29 8 0 14 1 14
3 0 1 9 65 20 142 24 168 23 155 5 155 -8 0 -17 -11 -21 -25 -4 -16 -16 -28
-31 -31 -30 -8 -188 12 -260 32 -91 25 -139 84 -95 116 22 15 42 50 42 73 0 9
-11 27 -25 40 -29 30 -94 34 -119 9z"/>
<path d="M14587 8850 c-83 -21 -156 -73 -194 -138 -31 -52 -36 -140 -14 -206
17 -49 73 -111 125 -139 58 -31 210 -31 277 0 106 48 165 135 163 243 -2 100
-55 181 -146 220 -59 25 -153 34 -211 20z m266 -171 c62 -28 52 -97 -17 -124
-48 -19 -224 -45 -314 -45 -53 0 -67 4 -86 23 -17 17 -22 31 -19 50 10 51 55
70 210 92 125 17 196 18 226 4z"/>
<path d="M1005 8290 c-3 -5 -1 -18 5 -29 6 -13 7 -22 0 -26 -5 -3 -93 -3 -193
1 -165 6 -187 5 -213 -11 -86 -50 -112 -169 -68 -305 33 -102 122 -150 182
-100 34 29 36 104 3 131 -28 23 -60 24 -87 4 -10 -8 -26 -15 -35 -15 -16 0
-36 35 -33 58 1 6 2 21 3 33 1 14 6 19 15 16 10 -4 13 -1 9 9 -4 11 8 14 65
14 l70 0 50 -103 c27 -56 63 -118 80 -138 41 -47 97 -66 147 -49 86 28 99 142
28 238 -14 18 -23 34 -22 36 2 1 16 7 32 14 68 29 63 162 -8 215 -14 10 -26
13 -30 7z m-89 -230 c42 0 44 -1 56 -41 11 -39 10 -43 -11 -60 -13 -11 -30
-19 -38 -19 -27 0 -71 29 -100 67 -52 67 -52 67 2 60 26 -4 67 -7 91 -7z"/>
<path d="M15193 8293 c-7 -3 -13 -13 -13 -23 0 -9 -7 -23 -15 -30 -18 -15
-324 -39 -550 -42 l-149 -3 -14 28 c-27 56 -34 17 -24 -126 5 -74 12 -140 16
-146 10 -15 26 -4 26 18 0 40 22 44 391 67 199 12 362 24 363 26 3 4 -12 230
-16 233 -2 1 -9 0 -15 -2z"/>
<path d="M14478 7869 c-58 -43 -57 -119 2 -212 16 -26 30 -49 30 -51 0 -2 -11
-7 -24 -10 -25 -6 -56 -59 -56 -94 0 -49 55 -132 87 -132 16 0 17 22 2 37 -21
21 15 27 190 27 157 1 180 3 210 21 47 28 69 61 81 122 18 98 -21 231 -81 274
-16 11 -44 23 -63 26 -49 8 -86 -30 -86 -87 0 -74 60 -103 121 -58 30 23 31
23 45 4 20 -28 18 -89 -3 -109 -12 -10 -41 -16 -82 -18 l-64 -3 -24 54 c-43
98 -104 187 -144 209 -47 27 -106 27 -141 0z m207 -195 c25 -25 45 -50 45 -55
0 -5 -38 -9 -85 -9 -73 0 -86 3 -95 19 -26 49 0 91 56 91 28 0 43 -9 79 -46z"/>
<path d="M14426 7213 c-4 -49 -9 -116 -13 -150 -4 -46 -2 -63 6 -63 7 0 17 13
22 29 6 16 17 32 26 35 23 9 241 -14 292 -31 52 -17 91 -49 91 -73 0 -9 -11
-27 -25 -40 -25 -23 -34 -72 -17 -96 12 -18 49 -34 79 -34 71 0 96 83 48 154
-14 21 -22 42 -19 48 4 6 3 8 -3 5 -5 -3 -21 4 -36 17 l-26 23 53 -5 54 -4 6
38 c3 22 8 74 12 117 5 62 4 77 -7 77 -8 0 -19 -10 -24 -22 -6 -11 -19 -24
-30 -28 -20 -6 -361 22 -410 34 -14 4 -31 18 -37 31 -22 48 -35 28 -42 -62z"/>
<path d="M934 7008 c-4 -7 0 -16 12 -22 10 -6 34 -26 53 -44 31 -30 33 -36 29
-82 -3 -28 -13 -59 -23 -70 -25 -28 -94 -66 -132 -75 -29 -6 -33 -4 -33 15 0
12 -7 78 -17 147 l-16 125 -36 -7 c-46 -8 -162 -65 -155 -76 3 -5 1 -9 -5 -9
-17 0 -51 -86 -51 -131 1 -81 58 -167 137 -204 115 -55 303 -25 385 62 75 78
77 211 6 298 -16 19 -54 46 -84 60 -63 29 -61 29 -70 13z m-149 -215 c4 -32 9
-65 11 -74 10 -35 -147 -27 -173 8 -39 52 7 98 117 116 14 2 28 5 32 6 4 0 10
-25 13 -56z"/>
<path d="M14360 6755 c0 -5 7 -16 16 -26 14 -16 13 -21 -10 -66 -13 -27 -28
-66 -31 -86 -15 -78 49 -173 132 -196 80 -23 115 -7 232 104 55 52 105 95 111
95 26 0 50 -22 50 -46 0 -61 -44 -100 -154 -138 -36 -12 -2 -26 89 -37 48 -5
90 -7 93 -4 3 3 0 16 -8 29 -11 21 -9 31 14 77 45 90 31 164 -41 219 -40 30
-53 35 -102 35 -67 0 -91 -14 -202 -122 -80 -76 -112 -89 -143 -57 -52 52 19
138 147 178 24 8 21 23 -5 29 -44 11 -188 19 -188 12z"/>
<path d="M805 6410 c-107 -23 -211 -81 -260 -145 -72 -95 -89 -206 -56 -366
39 -188 86 -364 96 -361 6 1 10 23 10 48 0 55 12 66 98 88 175 46 530 126 555
126 33 0 50 -16 61 -56 8 -31 31 -45 31 -20 0 9 -21 105 -46 214 -54 229 -89
312 -166 384 -29 28 -71 55 -103 67 -64 24 -164 33 -220 21z m311 -225 c35
-17 57 -37 72 -64 27 -48 29 -107 5 -119 -29 -15 -633 -156 -639 -149 -3 3 -9
35 -11 70 -4 45 -1 72 10 93 60 115 227 190 433 193 67 1 88 -3 130 -24z"/>
<path d="M14700 6147 c0 -13 7 -44 15 -68 44 -129 198 -207 293 -149 37 23 66
81 58 115 -17 66 -87 101 -144 71 -34 -17 -42 -33 -42 -82 0 -43 -14 -43 -69
-3 -29 21 -50 47 -67 85 -25 57 -44 70 -44 31z"/>
<path d="M14140 5711 c0 -11 5 -23 10 -26 21 -13 8 -50 -39 -114 -76 -104 -98
-197 -69 -295 18 -59 99 -138 160 -155 100 -28 181 8 323 143 96 91 161 132
198 122 32 -8 69 -45 63 -63 -3 -8 -1 -11 4 -8 18 11 11 -64 -10 -104 -37 -74
-148 -130 -234 -118 -23 3 -36 0 -40 -9 -7 -17 -12 -15 122 -59 110 -36 157
-40 133 -11 -6 7 -8 16 -4 20 4 4 0 4 -10 0 -33 -12 -18 33 28 83 102 114 111
266 22 361 -83 90 -227 88 -335 -3 -18 -15 -37 -23 -43 -19 -7 4 -9 3 -6 -3 8
-12 -97 -116 -107 -106 -4 5 -6 2 -4 -6 2 -8 -16 -24 -42 -38 -58 -32 -114
-27 -149 13 -20 24 -23 36 -19 90 5 77 36 121 118 168 47 26 66 31 135 33 90
2 105 17 40 40 -76 28 -237 83 -241 83 -2 0 -4 -9 -4 -19z"/>
<path d="M1240 5298 c-64 -35 -92 -88 -92 -178 l0 -70 -48 41 c-76 64 -148 66
-215 7 -66 -57 -85 -127 -61 -219 22 -83 189 -470 201 -466 11 4 11 14 0 64
-11 51 -15 49 474 254 162 68 180 69 207 4 13 -33 34 -40 34 -13 0 6 -41 106
-90 222 -95 223 -136 290 -208 340 -59 42 -139 47 -202 14z m259 -195 c37 -28
66 -84 58 -114 -5 -21 -29 -35 -146 -86 l-140 -60 -16 45 c-17 52 -19 99 -6
135 12 32 64 79 103 94 44 17 114 10 147 -14z m-364 -163 c25 -9 88 -96 82
-113 -2 -7 -253 -117 -267 -117 -11 0 -30 67 -30 104 0 106 105 168 215 126z"/>
<path d="M13950 5024 c-95 -41 -152 -129 -151 -235 1 -231 340 -371 498 -206
108 113 98 269 -24 377 -83 72 -234 103 -323 64z m82 -138 c84 -31 220 -103
252 -133 30 -27 33 -58 10 -91 -30 -43 -117 -22 -307 75 -119 61 -152 108
-110 155 22 25 79 23 155 -6z"/>
<path d="M1760 4630 c-8 -6 -63 -31 -122 -56 -125 -54 -145 -81 -50 -67 122
17 193 3 236 -48 31 -37 96 -157 96 -176 0 -10 -12 -26 -25 -36 -61 -44 -532
-307 -550 -307 -25 1 -45 16 -69 54 -12 19 -21 25 -28 18 -13 -13 190 -372
210 -372 15 0 16 22 1 37 -18 18 -14 75 7 90 10 8 107 64 214 125 107 61 224
129 259 150 74 43 115 48 142 16 11 -11 19 -25 19 -30 0 -4 7 -8 15 -8 8 0 15
5 15 10 0 14 -343 610 -350 609 -3 0 -12 -4 -20 -9z"/>
<path d="M13679 4485 c-51 -16 -112 -75 -135 -131 -29 -69 -2 -224 40 -232 14
-3 15 4 10 50 -12 106 40 154 158 146 116 -9 278 -106 278 -166 0 -34 -16 -45
-56 -38 -127 20 -129 20 -152 -9 -27 -34 -28 -75 -2 -102 45 -49 136 -37 193
26 56 63 71 98 72 171 0 53 -6 75 -30 118 -75 136 -241 210 -376 167z"/>
<path d="M13393 4078 c-27 -40 -64 -96 -82 -125 -36 -58 -34 -88 5 -52 30 29
25 31 258 -121 102 -67 190 -120 195 -118 5 1 36 44 70 95 49 75 57 94 46 103
-11 9 -16 7 -25 -9 -20 -39 -46 -28 -260 116 -142 96 -145 99 -145 135 0 20
-3 39 -7 43 -3 4 -28 -26 -55 -67z"/>
<path d="M2300 3758 c0 -7 7 -22 15 -32 8 -11 15 -32 15 -48 0 -24 -17 -40
-116 -115 l-117 -88 -16 25 c-33 51 -125 140 -165 160 -27 13 -62 20 -98 20
-46 0 -64 -5 -104 -32 -65 -44 -89 -87 -89 -163 0 -47 7 -74 32 -125 33 -69
250 -371 271 -378 17 -5 15 33 -4 48 -9 8 -14 25 -12 44 3 27 23 46 165 151
305 226 354 260 379 263 16 2 34 -6 53 -26 18 -17 34 -26 42 -22 8 6 -26 58
-107 169 -108 146 -145 184 -144 149z m-310 -248 c41 -21 68 -57 53 -70 -4 -4
-63 -49 -131 -99 -116 -87 -124 -92 -138 -74 -22 28 -37 89 -30 117 10 40 66
97 121 122 61 29 75 29 125 4z"/>
<path d="M13201 3757 c-117 -44 -176 -170 -138 -292 19 -60 33 -82 47 -69 9 9
9 22 0 51 -35 114 73 186 202 137 76 -29 76 -28 -17 -151 -47 -62 -85 -117
-85 -121 0 -16 109 -64 155 -70 71 -8 130 14 174 65 74 83 76 194 6 301 -77
115 -243 187 -344 149z m256 -263 c33 -25 73 -90 73 -118 0 -8 -8 -22 -17 -31
-23 -24 -71 -14 -133 26 l-49 32 20 26 c11 14 30 41 42 58 12 18 24 33 26 33
2 0 19 -12 38 -26z"/>
<path d="M13922 3715 c-44 -19 -66 -66 -52 -111 15 -43 44 -64 91 -64 71 0
116 95 72 149 -26 31 -73 42 -111 26z"/>
<path d="M12855 3335 c-81 -38 -114 -117 -84 -204 16 -45 43 -42 35 4 -8 40 7
75 32 75 21 0 268 -208 264 -222 -1 -5 2 -7 6 -4 5 3 17 -3 27 -14 17 -19 16
-21 -24 -67 l-42 -47 23 -18 c30 -23 33 -23 52 7 9 14 22 23 28 19 6 -4 8 -3
5 3 -4 6 1 17 11 26 16 15 23 12 87 -43 75 -64 102 -75 90 -37 -22 69 -35 152
-35 230 0 95 -12 110 -47 64 l-17 -24 -132 113 c-187 160 -210 172 -279 139z"/>
<path d="M2595 3233 c-34 -9 -135 -87 -232 -178 -51 -47 -97 -84 -103 -80 -5
3 -8 0 -6 -7 2 -7 -22 -37 -55 -65 -66 -59 -99 -67 -142 -33 -28 22 -47 26
-47 9 0 -6 34 -46 76 -89 42 -43 83 -88 91 -100 23 -33 39 -10 19 28 -37 71
-25 87 215 304 163 149 188 163 265 155 94 -10 164 -81 164 -168 0 -55 -22
-85 -150 -203 -41 -39 -109 -102 -150 -140 -101 -95 -139 -126 -155 -126 -8 0
-30 14 -48 30 -19 17 -37 30 -41 30 -11 0 -6 -39 7 -47 6 -4 68 -68 136 -141
78 -84 128 -129 134 -123 6 6 1 21 -14 40 -19 26 -21 36 -13 59 6 15 16 26 22
25 7 -2 11 1 9 6 -1 4 78 83 175 175 98 92 189 187 203 210 33 57 35 150 4
214 -30 61 -118 153 -179 186 -51 28 -140 42 -185 29z"/>
<path d="M6890 1097 c-87 -43 -225 -102 -232 -99 -5 1 -3 -7 4 -18 8 -12 19
-18 28 -14 34 15 63 16 86 4 l24 -13 0 -281 c0 -325 1 -323 -78 -328 -34 -2
-47 -7 -47 -18 0 -13 31 -15 208 -18 136 -1 207 1 207 8 0 5 0 13 0 17 0 4
-17 9 -37 11 -76 7 -73 -9 -73 404 l0 368 -22 -1 c-13 0 -43 -10 -68 -22z"/>
<path d="M7374 1106 c-95 -42 -157 -144 -158 -261 -2 -154 89 -254 222 -243
31 3 65 9 75 13 25 10 22 -10 -12 -80 -45 -95 -149 -176 -258 -199 -34 -8 -46
-36 -15 -36 95 2 234 50 309 106 17 13 35 24 40 24 16 1 96 123 121 183 35 83
42 230 17 309 -41 125 -133 198 -250 197 -33 0 -74 -6 -91 -13z m119 -54 c32
-28 51 -118 51 -245 1 -128 -3 -137 -56 -137 -68 0 -104 106 -96 280 4 81 7
95 27 111 23 19 44 16 74 -9z"/>
<path d="M7940 1093 c-139 -73 -158 -213 -44 -331 30 -31 54 -58 53 -61 0 -4
-21 -20 -47 -37 -146 -96 -112 -298 60 -349 186 -55 362 52 362 220 -1 76 -26
127 -93 187 l-49 44 34 19 c55 30 87 80 92 144 4 69 -18 114 -77 156 -38 27
-50 30 -139 33 -91 4 -100 2 -152 -25z m200 -50 c26 -34 35 -105 21 -168 -18
-79 -28 -82 -89 -29 -61 53 -82 89 -82 137 0 84 100 124 150 60z m-57 -432
c57 -53 80 -104 74 -165 -3 -38 -11 -55 -31 -73 -47 -40 -114 -24 -141 32 -27
58 -17 208 18 253 11 14 19 10 80 -47z"/>
<path d="M8532 1083 c-35 -90 -130 -378 -126 -384 2 -4 37 -7 78 -8 126 -2
255 -55 296 -124 27 -43 27 -116 0 -150 -24 -30 -81 -51 -112 -42 -13 4 -55
27 -95 52 -85 52 -124 55 -156 11 -29 -39 -15 -76 43 -108 38 -21 58 -25 130
-25 77 0 92 3 153 33 105 52 167 144 167 248 0 77 -19 123 -71 174 -63 61
-188 110 -282 110 -35 0 -38 2 -31 23 15 49 13 48 174 50 l153 2 32 77 c18 42
30 79 27 82 -3 4 -87 6 -187 6 l-183 0 -10 -27z"/>
</g>
</svg>
